<?xml version="1.0" encoding="UTF-8"?>
<svg width="24" height="24" version="1.1" viewBox="0 0 700 700" xmlns="http://www.w3.org/2000/svg" xmlns:xlink="http://www.w3.org/1999/xlink">
 <g>
  <path d="m210.7 249.69h42.34v36.438h-42.34z"/>
  <path d="m328.83 249.69h42.34v36.438h-42.34z"/>
  <path d="m446.95 249.69h42.348v36.438h-42.348z"/>
  <path d="m210.7 340.45h42.34v36.438h-42.34z"/>
  <path d="m328.83 340.45h42.34v36.438h-42.34z"/>
  <path d="m446.95 340.45h42.348v36.438h-42.348z"/>
  <path d="m210.7 431.21h42.34v36.438h-42.34z"/>
  <path d="m328.83 431.21h42.34v36.438h-42.34z"/>
  <path d="m244.95 28v39.984h-117.89v464.02h445.88v-464.02h-117.89v-39.984h-25.441v39.984h-159.23v-39.984zm302.55 478.56h-395v-302.29h395.01v302.29zm-117.89-413.13v31.887h25.441v-31.887h92.449v85.41h-395v-85.41h92.445v31.887h25.441v-31.887z"/>
  <use x="70" y="644" xlink:href="#w"/>
  <use x="90.550781" y="644" xlink:href="#d"/>
  <use x="104.359375" y="644" xlink:href="#b"/>
  <use x="123.347656" y="644" xlink:href="#a"/>
  <use x="142.242188" y="644" xlink:href="#c"/>
  <use x="155.628906" y="644" xlink:href="#b"/>
  <use x="174.617188" y="644" xlink:href="#l"/>
  <use x="204.410156" y="644" xlink:href="#k"/>
  <use x="224.453125" y="644" xlink:href="#f"/>
  <use x="252.453125" y="644" xlink:href="#j"/>
  <use x="276.253906" y="644" xlink:href="#v"/>
  <use x="294.875" y="644" xlink:href="#i"/>
  <use x="311.539062" y="644" xlink:href="#a"/>
  <use x="330.4375" y="644" xlink:href="#h"/>
  <use x="350.367188" y="644" xlink:href="#a"/>
  <use x="379.011719" y="644" xlink:href="#u"/>
  <use x="396.851562" y="644" xlink:href="#a"/>
  <use x="415.75" y="644" xlink:href="#c"/>
  <use x="429.132812" y="644" xlink:href="#f"/>
  <use x="447.382812" y="644" xlink:href="#i"/>
  <use x="464.050781" y="644" xlink:href="#g"/>
  <use x="483.984375" y="644" xlink:href="#b"/>
  <use x="502.976562" y="644" xlink:href="#t"/>
  <use x="521.226562" y="644" xlink:href="#a"/>
  <use x="70" y="672" xlink:href="#s"/>
  <use x="82.183594" y="672" xlink:href="#d"/>
  <use x="95.992188" y="672" xlink:href="#e"/>
  <use x="115.226562" y="672" xlink:href="#r"/>
  <use x="154.152344" y="672" xlink:href="#c"/>
  <use x="167.535156" y="672" xlink:href="#g"/>
  <use x="187.46875" y="672" xlink:href="#b"/>
  <use x="216.207031" y="672" xlink:href="#q"/>
  <use x="239.640625" y="672" xlink:href="#e"/>
  <use x="258.878906" y="672" xlink:href="#p"/>
  <use x="278.8125" y="672" xlink:href="#h"/>
  <use x="308.492188" y="672" xlink:href="#o"/>
  <use x="329.015625" y="672" xlink:href="#d"/>
  <use x="342.820312" y="672" xlink:href="#e"/>
  <use x="362.058594" y="672" xlink:href="#n"/>
  <use x="371.65625" y="672" xlink:href="#b"/>
  <use x="390.648438" y="672" xlink:href="#m"/>
  <use x="407.242188" y="672" xlink:href="#c"/>
 </g>
</svg>
